<svg xmlns="http://www.w3.org/2000/svg" xmlns:xlink="http://www.w3.org/1999/xlink" width="500" zoomAndPan="magnify" viewBox="0 0 375 374.999991" height="500" preserveAspectRatio="xMidYMid meet" version="1.0"><defs><g/><clipPath id="ba2e4c8e71"><path d="M 127.339844 126.351562 L 234.179688 126.351562 L 234.179688 204 L 127.339844 204 Z M 127.339844 126.351562 " clip-rule="nonzero"/></clipPath><clipPath id="f4d5e5c842"><path d="M 221.105469 203.882812 L 221.097656 203.882812 C 219.8125 203.519531 218.609375 203.0625 217.488281 202.566406 C 213.914062 200.957031 211.035156 198.867188 208.421875 196.730469 L 207.386719 195.847656 L 206.554688 195.113281 L 204.886719 193.640625 C 203.726562 192.542969 202.511719 191.402344 201.4375 190.304688 C 199.226562 188.109375 197.144531 185.816406 195.105469 183.527344 C 193.101562 181.214844 191.175781 178.863281 189.332031 176.5 C 185.601562 171.792969 182.242188 166.972656 178.914062 162.3125 C 177.265625 159.980469 175.640625 157.667969 174.023438 155.367188 C 173.214844 154.238281 172.417969 153.105469 171.617188 151.988281 C 171.214844 151.449219 170.820312 150.929688 170.425781 150.402344 C 170.148438 150.03125 169.867188 149.667969 169.566406 149.292969 C 169.460938 149.148438 169.347656 149.011719 169.234375 148.867188 C 165.960938 144.785156 162.476562 141.09375 158.550781 138.296875 C 154.601562 135.519531 150.351562 133.632812 145.699219 132.980469 C 145.21875 132.949219 144.753906 132.917969 144.265625 132.867188 C 143.75 132.886719 143.242188 132.898438 142.722656 132.917969 C 142.234375 133.011719 141.71875 133.03125 141.230469 133.15625 C 140.765625 133.3125 140.246094 133.363281 139.8125 133.582031 C 137.957031 134.265625 136.296875 135.46875 134.960938 137.054688 C 133.632812 138.640625 132.640625 140.566406 131.921875 142.585938 C 131.199219 144.609375 130.792969 146.734375 130.472656 148.921875 C 129.21875 157.480469 130.203125 165.699219 132.316406 172.519531 C 133.386719 175.941406 134.671875 179.058594 136.140625 181.804688 C 137.613281 184.519531 139.398438 186.832031 141.542969 188.273438 C 143.664062 189.722656 146.058594 190.242188 148.039062 189.984375 C 150.039062 189.703125 151.542969 188.730469 152.640625 187.910156 C 153.730469 187.050781 154.445312 186.242188 154.902344 185.703125 C 154.933594 185.660156 154.964844 185.628906 154.996094 185.597656 C 154.964844 185.628906 154.941406 185.671875 154.910156 185.703125 C 154.453125 186.261719 153.761719 187.082031 152.671875 187.953125 C 151.574219 188.78125 150.082031 189.785156 148.058594 190.097656 C 146.039062 190.375 143.636719 189.867188 141.398438 188.488281 C 139.15625 187.089844 137.238281 184.789062 135.65625 182.074219 C 134.089844 179.351562 132.546875 176.300781 131.269531 172.871094 C 129.996094 169.449219 128.9375 165.6875 128.214844 161.625 C 127.558594 157.542969 127.175781 153.210938 127.40625 148.597656 C 127.601562 144.152344 128.234375 138.949219 131.25 134.347656 C 132.722656 132.058594 134.855469 129.953125 137.519531 128.574219 C 138.164062 128.179688 138.878906 127.972656 139.570312 127.664062 C 140.277344 127.402344 141.003906 127.238281 141.726562 127.03125 C 142.464844 126.886719 143.199219 126.78125 143.945312 126.667969 C 144.734375 126.625 145.53125 126.585938 146.328125 126.566406 C 146.972656 126.585938 147.605469 126.617188 148.246094 126.636719 C 148.359375 126.648438 148.175781 126.617188 148.527344 126.667969 L 148.660156 126.679688 L 148.929688 126.710938 L 149.460938 126.78125 L 150.527344 126.917969 C 151.242188 126.988281 151.9375 127.175781 152.652344 127.308594 C 153.367188 127.433594 154.070312 127.632812 154.777344 127.828125 C 157.585938 128.617188 160.332031 129.746094 162.933594 131.144531 C 166.996094 133.351562 170.726562 136.140625 174.148438 139.25 C 174.6875 139.726562 175.214844 140.222656 175.734375 140.722656 C 176.148438 141.125 176.550781 141.53125 176.957031 141.933594 C 177.980469 142.960938 179.039062 144.082031 180.035156 145.15625 L 181.484375 146.765625 L 182.894531 148.382812 C 184.75 150.535156 186.617188 152.714844 188.492188 154.898438 C 192.179688 159.273438 195.890625 163.648438 199.644531 167.90625 C 203.425781 172.15625 207.28125 176.269531 211.355469 180.09375 C 212.371094 181.089844 213.367188 181.910156 214.359375 182.839844 L 216.039062 184.304688 L 216.878906 185.027344 L 217.542969 185.578125 C 219.519531 187.164062 221.550781 188.511719 223.40625 189.320312 C 224.320312 189.746094 225.203125 190.054688 225.957031 190.179688 C 226.332031 190.242188 226.703125 190.316406 227.023438 190.304688 C 227.191406 190.316406 227.355469 190.324219 227.5 190.292969 C 227.617188 190.285156 227.855469 190.292969 227.855469 190.273438 C 227.875 190.261719 227.886719 190.273438 227.90625 190.273438 L 227.9375 190.292969 C 227.945312 190.292969 227.9375 190.316406 228.0625 190.273438 L 228.890625 190.023438 C 228.890625 190.023438 228.910156 190.023438 228.921875 190.015625 C 228.933594 190.015625 228.941406 190.015625 228.964844 190.003906 C 228.996094 189.992188 229.023438 189.984375 229.066406 189.972656 L 228.972656 189.992188 L 229.109375 189.941406 L 229.417969 189.808594 C 229.636719 189.734375 229.84375 189.652344 230.011719 189.546875 C 230.785156 189.207031 231.347656 188.789062 231.824219 188.355469 C 232.289062 187.921875 232.671875 187.433594 232.996094 186.8125 C 233.304688 186.179688 233.542969 185.390625 233.71875 184.480469 C 233.992188 183.140625 234.03125 181.515625 233.90625 179.785156 C 234.363281 185.339844 234.46875 201.375 221.105469 203.882812 Z M 221.105469 203.882812 " clip-rule="nonzero"/></clipPath><clipPath id="a6517d88ab"><path d="M 221.105469 203.882812 L 221.097656 203.882812 C 219.8125 203.519531 218.609375 203.0625 217.488281 202.566406 C 213.914062 200.957031 211.035156 198.867188 208.421875 196.730469 L 207.386719 195.847656 L 206.554688 195.113281 L 204.886719 193.640625 C 203.726562 192.542969 202.511719 191.402344 201.4375 190.304688 C 199.226562 188.109375 197.144531 185.816406 195.105469 183.527344 C 193.101562 181.214844 191.175781 178.863281 189.332031 176.5 C 185.601562 171.792969 182.242188 166.972656 178.914062 162.3125 C 177.265625 159.980469 175.640625 157.667969 174.023438 155.367188 C 173.214844 154.238281 172.417969 153.105469 171.617188 151.988281 C 171.214844 151.449219 170.820312 150.929688 170.425781 150.402344 C 170.148438 150.03125 169.867188 149.667969 169.566406 149.292969 C 169.460938 149.148438 169.347656 149.011719 169.234375 148.867188 C 165.960938 144.785156 162.476562 141.09375 158.550781 138.296875 C 154.601562 135.519531 150.351562 133.632812 145.699219 132.980469 C 145.21875 132.949219 144.753906 132.917969 144.265625 132.867188 C 143.75 132.886719 143.242188 132.898438 142.722656 132.917969 C 142.234375 133.011719 141.71875 133.03125 141.230469 133.15625 C 140.765625 133.3125 140.246094 133.363281 139.8125 133.582031 C 137.957031 134.265625 136.296875 135.46875 134.960938 137.054688 C 133.632812 138.640625 132.640625 140.566406 131.921875 142.585938 C 131.199219 144.609375 130.792969 146.734375 130.472656 148.921875 C 129.21875 157.480469 130.203125 165.699219 132.316406 172.519531 C 133.386719 175.941406 134.671875 179.058594 136.140625 181.804688 C 137.613281 184.519531 139.398438 186.832031 141.542969 188.273438 C 143.664062 189.722656 146.058594 190.242188 148.039062 189.984375 C 150.039062 189.703125 151.542969 188.730469 152.640625 187.910156 C 153.730469 187.050781 154.445312 186.242188 154.902344 185.703125 C 154.933594 185.660156 154.964844 185.628906 154.996094 185.597656 C 154.964844 185.628906 154.941406 185.671875 154.910156 185.703125 C 154.453125 186.261719 153.761719 187.082031 152.671875 187.953125 C 151.574219 188.78125 150.082031 189.785156 148.058594 190.097656 C 146.039062 190.375 143.636719 189.867188 141.398438 188.488281 C 139.15625 187.089844 137.238281 184.789062 135.65625 182.074219 C 134.089844 179.351562 132.546875 176.300781 131.269531 172.871094 C 129.996094 169.449219 128.9375 165.6875 128.214844 161.625 C 127.558594 157.542969 127.175781 153.210938 127.40625 148.597656 C 127.601562 144.152344 128.234375 138.949219 131.25 134.347656 C 132.722656 132.058594 134.855469 129.953125 137.519531 128.574219 C 138.164062 128.179688 138.878906 127.972656 139.570312 127.664062 C 140.277344 127.402344 141.003906 127.238281 141.726562 127.03125 C 142.464844 126.886719 143.199219 126.78125 143.945312 126.667969 C 144.734375 126.625 145.53125 126.585938 146.328125 126.566406 C 146.972656 126.585938 147.605469 126.617188 148.246094 126.636719 C 148.359375 126.648438 148.175781 126.617188 148.527344 126.667969 L 148.660156 126.679688 L 148.929688 126.710938 L 149.460938 126.78125 L 150.527344 126.917969 C 151.242188 126.988281 151.9375 127.175781 152.652344 127.308594 C 153.367188 127.433594 154.070312 127.632812 154.777344 127.828125 C 157.585938 128.617188 160.332031 129.746094 162.933594 131.144531 C 166.996094 133.351562 170.726562 136.140625 174.148438 139.25 C 174.6875 139.726562 175.214844 140.222656 175.734375 140.722656 C 176.148438 141.125 176.550781 141.53125 176.957031 141.933594 C 177.980469 142.960938 179.039062 144.082031 180.035156 145.15625 L 181.484375 146.765625 L 182.894531 148.382812 C 184.75 150.535156 186.617188 152.714844 188.492188 154.898438 C 192.179688 159.273438 195.890625 163.648438 199.644531 167.90625 C 203.425781 172.15625 207.28125 176.269531 211.355469 180.09375 C 212.371094 181.089844 213.367188 181.910156 214.359375 182.839844 L 216.039062 184.304688 L 216.878906 185.027344 L 217.542969 185.578125 C 219.519531 187.164062 221.550781 188.511719 223.40625 189.320312 C 224.320312 189.746094 225.203125 190.054688 225.957031 190.179688 C 226.332031 190.242188 226.703125 190.316406 227.023438 190.304688 C 227.191406 190.316406 227.355469 190.324219 227.5 190.292969 C 227.617188 190.285156 227.855469 190.292969 227.855469 190.273438 C 227.875 190.261719 227.886719 190.273438 227.90625 190.273438 L 227.9375 190.292969 C 227.945312 190.292969 227.9375 190.316406 228.0625 190.273438 L 228.890625 190.023438 C 228.890625 190.023438 228.910156 190.023438 228.921875 190.015625 C 228.933594 190.015625 228.941406 190.015625 228.964844 190.003906 C 228.996094 189.992188 229.023438 189.984375 229.066406 189.972656 L 228.972656 189.992188 L 229.109375 189.941406 L 229.417969 189.808594 C 229.636719 189.734375 229.84375 189.652344 230.011719 189.546875 C 230.785156 189.207031 231.347656 188.789062 231.824219 188.355469 C 232.289062 187.921875 232.671875 187.433594 232.996094 186.8125 C 233.304688 186.179688 233.542969 185.390625 233.71875 184.480469 C 233.992188 183.140625 234.03125 181.515625 233.90625 179.785156 C 234.363281 185.339844 234.46875 201.375 221.105469 203.882812 " clip-rule="nonzero"/></clipPath><clipPath id="6ebcf1b7b8"><path d="M 158.679688 77.703125 L 91.964844 181.179688 L 202.964844 252.742188 L 269.679688 149.265625 Z M 158.679688 77.703125 " clip-rule="nonzero"/></clipPath><linearGradient x1="-0.0270799" gradientTransform="matrix(105.023785, 67.711759, -67.711759, 105.023785, 122.365908, 140.522487)" y1="0" x2="1.026788" gradientUnits="userSpaceOnUse" y2="0" id="dd1ddb1e4d"><stop stop-opacity="1" stop-color="rgb(96.099854%, 52.49939%, 8.599854%)" offset="0"/><stop stop-opacity="1" stop-color="rgb(96.099854%, 52.34375%, 8.599854%)" offset="0.0625"/><stop stop-opacity="1" stop-color="rgb(96.099854%, 51.992798%, 8.599854%)" offset="0.0703125"/><stop stop-opacity="1" stop-color="rgb(96.099854%, 51.779175%, 8.599854%)" offset="0.078125"/><stop stop-opacity="1" stop-color="rgb(96.099854%, 51.579285%, 8.599854%)" offset="0.0859375"/><stop stop-opacity="1" stop-color="rgb(96.099854%, 51.382446%, 8.599854%)" offset="0.09375"/><stop stop-opacity="1" stop-color="rgb(96.299744%, 50.982666%, 8.599854%)" offset="0.0976562"/><stop stop-opacity="1" stop-color="rgb(96.499634%, 50.59967%, 8.599854%)" offset="0.101562"/><stop stop-opacity="1" stop-color="rgb(96.476746%, 50.59967%, 8.599854%)" offset="0.109375"/><stop stop-opacity="1" stop-color="rgb(96.276855%, 50.563049%, 8.634949%)" offset="0.117187"/><stop stop-opacity="1" stop-color="rgb(96.099854%, 50.350952%, 8.834839%)" offset="0.125"/><stop stop-opacity="1" stop-color="rgb(96.099854%, 49.983215%, 8.996582%)" offset="0.140625"/><stop stop-opacity="1" stop-color="rgb(96.099854%, 49.552917%, 8.796692%)" offset="0.144531"/><stop stop-opacity="1" stop-color="rgb(96.099854%, 49.311829%, 8.599854%)" offset="0.148437"/><stop stop-opacity="1" stop-color="rgb(96.099854%, 49.154663%, 8.599854%)" offset="0.15625"/><stop stop-opacity="1" stop-color="rgb(96.099854%, 48.986816%, 8.610535%)" offset="0.164062"/><stop stop-opacity="1" stop-color="rgb(96.099854%, 48.780823%, 8.810425%)" offset="0.171875"/><stop stop-opacity="1" stop-color="rgb(96.099854%, 48.39325%, 8.999634%)" offset="0.179687"/><stop stop-opacity="1" stop-color="rgb(96.099854%, 48.008728%, 8.999634%)" offset="0.1875"/><stop stop-opacity="1" stop-color="rgb(96.099854%, 47.657776%, 8.988953%)" offset="0.203125"/><stop stop-opacity="1" stop-color="rgb(96.095276%, 47.499084%, 8.789062%)" offset="0.210937"/><stop stop-opacity="1" stop-color="rgb(95.895386%, 47.499084%, 8.599854%)" offset="0.21875"/><stop stop-opacity="1" stop-color="rgb(95.698547%, 47.305298%, 8.79364%)" offset="0.226562"/><stop stop-opacity="1" stop-color="rgb(95.698547%, 47.091675%, 8.99353%)" offset="0.234375"/><stop stop-opacity="1" stop-color="rgb(95.698547%, 46.882629%, 8.999634%)" offset="0.25"/><stop stop-opacity="1" stop-color="rgb(95.698547%, 46.498108%, 8.999634%)" offset="0.257812"/><stop stop-opacity="1" stop-color="rgb(95.698547%, 46.30127%, 8.999634%)" offset="0.265625"/><stop stop-opacity="1" stop-color="rgb(95.698547%, 46.099854%, 8.799744%)" offset="0.269531"/><stop stop-opacity="1" stop-color="rgb(95.698547%, 45.899963%, 8.599854%)" offset="0.273438"/><stop stop-opacity="1" stop-color="rgb(95.698547%, 45.899963%, 8.605957%)" offset="0.28125"/><stop stop-opacity="1" stop-color="rgb(95.698547%, 45.896912%, 8.805847%)" offset="0.289062"/><stop stop-opacity="1" stop-color="rgb(95.698547%, 45.700073%, 8.999634%)" offset="0.296875"/><stop stop-opacity="1" stop-color="rgb(95.698547%, 45.315552%, 8.999634%)" offset="0.3125"/><stop stop-opacity="1" stop-color="rgb(95.498657%, 44.91272%, 8.999634%)" offset="0.316406"/><stop stop-opacity="1" stop-color="rgb(95.298767%, 44.699097%, 8.999634%)" offset="0.320312"/><stop stop-opacity="1" stop-color="rgb(95.298767%, 44.697571%, 8.998108%)" offset="0.328125"/><stop stop-opacity="1" stop-color="rgb(95.298767%, 44.502258%, 8.802795%)" offset="0.335938"/><stop stop-opacity="1" stop-color="rgb(95.298767%, 44.303894%, 8.79364%)" offset="0.34375"/><stop stop-opacity="1" stop-color="rgb(95.298767%, 44.114685%, 8.988953%)" offset="0.351562"/><stop stop-opacity="1" stop-color="rgb(95.298767%, 43.910217%, 8.999634%)" offset="0.359375"/><stop stop-opacity="1" stop-color="rgb(95.298767%, 43.695068%, 8.999634%)" offset="0.375"/><stop stop-opacity="1" stop-color="rgb(95.298767%, 43.315125%, 8.815002%)" offset="0.390625"/><stop stop-opacity="1" stop-color="rgb(95.298767%, 42.915344%, 8.815002%)" offset="0.394531"/><stop stop-opacity="1" stop-color="rgb(95.298767%, 42.698669%, 8.999634%)" offset="0.398438"/><stop stop-opacity="1" stop-color="rgb(95.298767%, 42.698669%, 8.999634%)" offset="0.40625"/><stop stop-opacity="1" stop-color="rgb(95.298767%, 42.549133%, 8.999634%)" offset="0.421875"/><stop stop-opacity="1" stop-color="rgb(95.298767%, 42.216492%, 8.999634%)" offset="0.429687"/><stop stop-opacity="1" stop-color="rgb(95.298767%, 42.016602%, 8.999634%)" offset="0.4375"/><stop stop-opacity="1" stop-color="rgb(95.298767%, 41.802979%, 8.999634%)" offset="0.441406"/><stop stop-opacity="1" stop-color="rgb(95.298767%, 41.607666%, 8.999634%)" offset="0.445312"/><stop stop-opacity="1" stop-color="rgb(95.298767%, 41.603088%, 9.190369%)" offset="0.453125"/><stop stop-opacity="1" stop-color="rgb(95.298767%, 41.412354%, 9.390259%)" offset="0.460938"/><stop stop-opacity="1" stop-color="rgb(95.298767%, 41.212463%, 9.399414%)" offset="0.46875"/><stop stop-opacity="1" stop-color="rgb(95.298767%, 41.003418%, 9.399414%)" offset="0.484375"/><stop stop-opacity="1" stop-color="rgb(95.298767%, 40.618896%, 9.399414%)" offset="0.5"/><stop stop-opacity="1" stop-color="rgb(95.118713%, 40.414429%, 9.577942%)" offset="0.507812"/><stop stop-opacity="1" stop-color="rgb(94.918823%, 40.19928%, 9.777832%)" offset="0.511719"/><stop stop-opacity="1" stop-color="rgb(94.898987%, 39.99939%, 9.799194%)" offset="0.515625"/><stop stop-opacity="1" stop-color="rgb(94.898987%, 39.805603%, 9.991455%)" offset="0.523438"/><stop stop-opacity="1" stop-color="rgb(94.898987%, 39.605713%, 10.191345%)" offset="0.53125"/><stop stop-opacity="1" stop-color="rgb(94.898987%, 39.414978%, 10.198975%)" offset="0.539063"/><stop stop-opacity="1" stop-color="rgb(94.898987%, 39.215088%, 10.198975%)" offset="0.546875"/><stop stop-opacity="1" stop-color="rgb(94.898987%, 39.025879%, 10.198975%)" offset="0.554688"/><stop stop-opacity="1" stop-color="rgb(94.898987%, 38.825989%, 10.366821%)" offset="0.5625"/><stop stop-opacity="1" stop-color="rgb(95.083618%, 38.612366%, 10.566711%)" offset="0.570312"/><stop stop-opacity="1" stop-color="rgb(95.283508%, 38.412476%, 10.598755%)" offset="0.578125"/><stop stop-opacity="1" stop-color="rgb(95.298767%, 38.221741%, 10.598755%)" offset="0.585938"/><stop stop-opacity="1" stop-color="rgb(95.298767%, 38.021851%, 10.598755%)" offset="0.59375"/><stop stop-opacity="1" stop-color="rgb(95.298767%, 37.814331%, 10.598755%)" offset="0.609375"/><stop stop-opacity="1" stop-color="rgb(95.298767%, 37.614441%, 10.778809%)" offset="0.617188"/><stop stop-opacity="1" stop-color="rgb(95.298767%, 37.467957%, 10.978699%)" offset="0.625"/><stop stop-opacity="1" stop-color="rgb(95.298767%, 37.316895%, 10.998535%)" offset="0.632812"/><stop stop-opacity="1" stop-color="rgb(95.298767%, 36.968994%, 10.998535%)" offset="0.636719"/><stop stop-opacity="1" stop-color="rgb(95.298767%, 36.639404%, 10.998535%)" offset="0.640625"/><stop stop-opacity="1" stop-color="rgb(95.115662%, 36.569214%, 11.181641%)" offset="0.648438"/><stop stop-opacity="1" stop-color="rgb(94.915771%, 36.499023%, 11.381531%)" offset="0.65625"/><stop stop-opacity="1" stop-color="rgb(94.898987%, 36.325073%, 11.399841%)" offset="0.664063"/><stop stop-opacity="1" stop-color="rgb(94.898987%, 36.125183%, 11.399841%)" offset="0.671875"/><stop stop-opacity="1" stop-color="rgb(94.898987%, 35.935974%, 11.399841%)" offset="0.679688"/><stop stop-opacity="1" stop-color="rgb(94.898987%, 35.736084%, 11.399841%)" offset="0.6875"/><stop stop-opacity="1" stop-color="rgb(94.898987%, 35.523987%, 11.399841%)" offset="0.695312"/><stop stop-opacity="1" stop-color="rgb(94.898987%, 35.324097%, 11.399841%)" offset="0.703125"/><stop stop-opacity="1" stop-color="rgb(94.898987%, 35.131836%, 11.399841%)" offset="0.710938"/><stop stop-opacity="1" stop-color="rgb(94.898987%, 34.931946%, 11.399841%)" offset="0.71875"/><stop stop-opacity="1" stop-color="rgb(94.898987%, 34.725952%, 11.399841%)" offset="0.734375"/><stop stop-opacity="1" stop-color="rgb(94.898987%, 34.359741%, 11.399841%)" offset="0.75"/><stop stop-opacity="1" stop-color="rgb(94.898987%, 33.976746%, 11.555481%)" offset="0.765625"/><stop stop-opacity="1" stop-color="rgb(94.898987%, 33.743286%, 11.755371%)" offset="0.78125"/><stop stop-opacity="1" stop-color="rgb(94.898987%, 33.518982%, 11.619568%)" offset="0.796875"/><stop stop-opacity="1" stop-color="rgb(94.744873%, 33.319092%, 11.419678%)" offset="0.804688"/><stop stop-opacity="1" stop-color="rgb(94.544983%, 33.299255%, 11.399841%)" offset="0.8125"/><stop stop-opacity="1" stop-color="rgb(94.499207%, 33.13446%, 11.399841%)" offset="0.820312"/><stop stop-opacity="1" stop-color="rgb(94.499207%, 32.93457%, 11.56311%)" offset="0.828125"/><stop stop-opacity="1" stop-color="rgb(94.499207%, 32.740784%, 11.763%)" offset="0.835938"/><stop stop-opacity="1" stop-color="rgb(94.499207%, 32.540894%, 11.799622%)" offset="0.84375"/><stop stop-opacity="1" stop-color="rgb(94.499207%, 32.348633%, 11.799622%)" offset="0.859375"/><stop stop-opacity="1" stop-color="rgb(94.499207%, 31.999207%, 11.799622%)" offset="0.863281"/><stop stop-opacity="1" stop-color="rgb(94.499207%, 31.799316%, 11.799622%)" offset="0.867188"/><stop stop-opacity="1" stop-color="rgb(94.499207%, 31.642151%, 11.799622%)" offset="0.875"/><stop stop-opacity="1" stop-color="rgb(94.499207%, 31.295776%, 11.799622%)" offset="0.890625"/><stop stop-opacity="1" stop-color="rgb(94.499207%, 31.053162%, 11.799622%)" offset="0.90625"/><stop stop-opacity="1" stop-color="rgb(94.499207%, 30.844116%, 11.799622%)" offset="0.914062"/><stop stop-opacity="1" stop-color="rgb(94.499207%, 30.644226%, 11.949158%)" offset="0.921875"/><stop stop-opacity="1" stop-color="rgb(94.499207%, 30.453491%, 12.149048%)" offset="0.929688"/><stop stop-opacity="1" stop-color="rgb(94.499207%, 30.253601%, 12.199402%)" offset="0.9375"/><stop stop-opacity="1" stop-color="rgb(94.499207%, 30.044556%, 12.199402%)" offset="0.945312"/><stop stop-opacity="1" stop-color="rgb(94.499207%, 29.844666%, 12.199402%)" offset="0.953125"/><stop stop-opacity="1" stop-color="rgb(94.499207%, 29.649353%, 12.199402%)" offset="0.960938"/><stop stop-opacity="1" stop-color="rgb(94.499207%, 29.449463%, 12.306213%)" offset="0.96875"/><stop stop-opacity="1" stop-color="rgb(94.499207%, 29.399109%, 12.457275%)" offset="1"/></linearGradient><clipPath id="df00e81fd9"><path d="M 155.734375 149.210938 L 170.652344 149.210938 L 170.652344 184.582031 L 155.734375 184.582031 Z M 155.734375 149.210938 " clip-rule="nonzero"/></clipPath><clipPath id="4d75dc3836"><path d="M 169.566406 149.292969 C 169.152344 150.308594 168.746094 151.304688 168.351562 152.277344 C 167.015625 155.65625 165.90625 158.859375 164.832031 161.792969 C 163.78125 164.746094 162.777344 167.429688 161.957031 169.90625 C 160.402344 174.863281 159.015625 178.695312 157.75 181.183594 C 157.140625 182.425781 156.570312 183.339844 156.195312 183.941406 C 156.039062 184.160156 155.917969 184.34375 155.824219 184.488281 C 155.925781 184.355469 156.050781 184.167969 156.207031 183.949219 C 156.589844 183.351562 157.171875 182.449219 157.792969 181.203125 C 158.425781 179.960938 159.128906 178.394531 159.84375 176.507812 C 160.582031 174.625 161.296875 172.425781 162.199219 169.992188 C 164.074219 165.160156 166.34375 159.253906 169.359375 152.703125 C 169.699219 151.945312 170.0625 151.179688 170.425781 150.402344 C 170.148438 150.03125 169.867188 149.667969 169.566406 149.292969 Z M 169.566406 149.292969 " clip-rule="nonzero"/></clipPath><clipPath id="a27fb7b81e"><path d="M 169.566406 149.292969 C 169.152344 150.308594 168.746094 151.304688 168.351562 152.277344 C 167.015625 155.65625 165.90625 158.859375 164.832031 161.792969 C 163.78125 164.746094 162.777344 167.429688 161.957031 169.90625 C 160.402344 174.863281 159.015625 178.695312 157.75 181.183594 C 157.140625 182.425781 156.570312 183.339844 156.195312 183.941406 C 156.039062 184.160156 155.917969 184.34375 155.824219 184.488281 C 155.925781 184.355469 156.050781 184.167969 156.207031 183.949219 C 156.589844 183.351562 157.171875 182.449219 157.792969 181.203125 C 158.425781 179.960938 159.128906 178.394531 159.84375 176.507812 C 160.582031 174.625 161.296875 172.425781 162.199219 169.992188 C 164.074219 165.160156 166.34375 159.253906 169.359375 152.703125 C 169.699219 151.945312 170.0625 151.179688 170.425781 150.402344 C 170.148438 150.03125 169.867188 149.667969 169.566406 149.292969 " clip-rule="nonzero"/></clipPath><clipPath id="f0247ff9c0"><path d="M 163.804688 142.023438 L 138.300781 165.25 L 162.445312 191.757812 L 187.949219 168.535156 Z M 163.804688 142.023438 " clip-rule="nonzero"/></clipPath><linearGradient x1="0.10438" gradientTransform="matrix(110.896062, 121.779218, -121.779218, 110.896062, 139.243516, 141.139377)" y1="0" x2="0.322073" gradientUnits="userSpaceOnUse" y2="0" id="32d4bddcef"><stop stop-opacity="1" stop-color="rgb(19.999695%, 40.042114%, 72.499084%)" offset="0"/><stop stop-opacity="1" stop-color="rgb(19.999695%, 40.220642%, 72.523499%)" offset="0.03125"/><stop stop-opacity="1" stop-color="rgb(19.999695%, 40.41748%, 72.723389%)" offset="0.046875"/><stop stop-opacity="1" stop-color="rgb(19.999695%, 40.617371%, 72.898865%)" offset="0.0625"/><stop stop-opacity="1" stop-color="rgb(20.021057%, 40.820312%, 72.920227%)" offset="0.078125"/><stop stop-opacity="1" stop-color="rgb(20.220947%, 41.020203%, 73.120117%)" offset="0.09375"/><stop stop-opacity="1" stop-color="rgb(20.399475%, 41.223145%, 73.298645%)" offset="0.109375"/><stop stop-opacity="1" stop-color="rgb(20.399475%, 41.423035%, 73.318481%)" offset="0.125"/><stop stop-opacity="1" stop-color="rgb(20.399475%, 41.61377%, 73.518372%)" offset="0.140625"/><stop stop-opacity="1" stop-color="rgb(20.399475%, 41.815186%, 73.699951%)" offset="0.15625"/><stop stop-opacity="1" stop-color="rgb(20.399475%, 42.016602%, 73.699951%)" offset="0.171875"/><stop stop-opacity="1" stop-color="rgb(20.399475%, 42.216492%, 73.699951%)" offset="0.1875"/><stop stop-opacity="1" stop-color="rgb(20.399475%, 42.41333%, 73.718262%)" offset="0.203125"/><stop stop-opacity="1" stop-color="rgb(20.399475%, 42.562866%, 73.918152%)" offset="0.21875"/><stop stop-opacity="1" stop-color="rgb(20.399475%, 42.721558%, 74.099731%)" offset="0.234375"/><stop stop-opacity="1" stop-color="rgb(20.41626%, 42.921448%, 74.116516%)" offset="0.25"/><stop stop-opacity="1" stop-color="rgb(20.61615%, 43.119812%, 74.316406%)" offset="0.28125"/><stop stop-opacity="1" stop-color="rgb(20.799255%, 43.319702%, 74.499512%)" offset="0.3125"/><stop stop-opacity="1" stop-color="rgb(20.799255%, 43.516541%, 74.499512%)" offset="0.328125"/><stop stop-opacity="1" stop-color="rgb(20.799255%, 43.716431%, 74.511719%)" offset="0.34375"/><stop stop-opacity="1" stop-color="rgb(20.819092%, 43.919373%, 74.711609%)" offset="0.359375"/><stop stop-opacity="1" stop-color="rgb(21.018982%, 44.119263%, 74.899292%)" offset="0.375"/><stop stop-opacity="1" stop-color="rgb(21.188354%, 44.309998%, 74.909973%)" offset="0.390625"/><stop stop-opacity="1" stop-color="rgb(21.005249%, 44.509888%, 75.109863%)" offset="0.40625"/><stop stop-opacity="1" stop-color="rgb(21.01593%, 44.711304%, 75.299072%)" offset="0.421875"/><stop stop-opacity="1" stop-color="rgb(21.199036%, 44.911194%, 75.299072%)" offset="0.4375"/><stop stop-opacity="1" stop-color="rgb(21.199036%, 45.114136%, 75.299072%)" offset="0.453125"/><stop stop-opacity="1" stop-color="rgb(21.199036%, 45.314026%, 75.309753%)" offset="0.46875"/><stop stop-opacity="1" stop-color="rgb(21.217346%, 45.516968%, 75.509644%)" offset="0.484375"/><stop stop-opacity="1" stop-color="rgb(21.403503%, 45.716858%, 75.698853%)" offset="0.5"/><stop stop-opacity="1" stop-color="rgb(21.585083%, 45.915222%, 75.714111%)" offset="0.53125"/><stop stop-opacity="1" stop-color="rgb(21.598816%, 46.121216%, 75.914001%)" offset="0.5625"/><stop stop-opacity="1" stop-color="rgb(21.612549%, 46.505737%, 76.098633%)" offset="0.578125"/><stop stop-opacity="1" stop-color="rgb(21.812439%, 46.707153%, 76.107788%)" offset="0.59375"/><stop stop-opacity="1" stop-color="rgb(21.998596%, 46.907043%, 76.307678%)" offset="0.609375"/><stop stop-opacity="1" stop-color="rgb(21.998596%, 47.109985%, 76.499939%)" offset="0.625"/><stop stop-opacity="1" stop-color="rgb(21.998596%, 47.309875%, 76.506042%)" offset="0.640625"/><stop stop-opacity="1" stop-color="rgb(21.998596%, 47.50824%, 76.705933%)" offset="0.65625"/><stop stop-opacity="1" stop-color="rgb(21.998596%, 47.662354%, 76.899719%)" offset="0.6875"/><stop stop-opacity="1" stop-color="rgb(21.998596%, 47.911072%, 76.899719%)" offset="0.695312"/><stop stop-opacity="1" stop-color="rgb(22.009277%, 48.106384%, 76.899719%)" offset="0.703125"/><stop stop-opacity="1" stop-color="rgb(22.210693%, 48.205566%, 76.905823%)" offset="0.71875"/><stop stop-opacity="1" stop-color="rgb(22.399902%, 48.405457%, 77.105713%)" offset="0.75"/><stop stop-opacity="1" stop-color="rgb(22.399902%, 48.602295%, 77.2995%)" offset="0.765625"/><stop stop-opacity="1" stop-color="rgb(22.399902%, 48.710632%, 77.2995%)" offset="0.773438"/><stop stop-opacity="1" stop-color="rgb(22.399902%, 48.905945%, 77.307129%)" offset="0.78125"/><stop stop-opacity="1" stop-color="rgb(22.40448%, 49.005127%, 77.456665%)" offset="0.796875"/><stop stop-opacity="1" stop-color="rgb(22.554016%, 49.205017%, 77.598572%)" offset="0.8125"/><stop stop-opacity="1" stop-color="rgb(22.698975%, 49.403381%, 77.598572%)" offset="0.84375"/><stop stop-opacity="1" stop-color="rgb(22.698975%, 49.603271%, 77.598572%)" offset="0.859375"/><stop stop-opacity="1" stop-color="rgb(22.698975%, 49.804688%, 77.604675%)" offset="0.875"/><stop stop-opacity="1" stop-color="rgb(22.698975%, 50.006104%, 77.806091%)" offset="0.890625"/><stop stop-opacity="1" stop-color="rgb(22.698975%, 50.20752%, 77.999878%)" offset="0.90625"/><stop stop-opacity="1" stop-color="rgb(22.698975%, 50.40741%, 78.00293%)" offset="0.921875"/><stop stop-opacity="1" stop-color="rgb(22.698975%, 50.59967%, 78.201294%)" offset="0.9375"/><stop stop-opacity="1" stop-color="rgb(22.698975%, 50.701904%, 78.398132%)" offset="0.945313"/><stop stop-opacity="1" stop-color="rgb(22.705078%, 50.901794%, 78.399658%)" offset="0.953125"/><stop stop-opacity="1" stop-color="rgb(22.904968%, 50.999451%, 78.399658%)" offset="0.96875"/><stop stop-opacity="1" stop-color="rgb(23.098755%, 51.101685%, 78.399658%)" offset="0.984375"/><stop stop-opacity="1" stop-color="rgb(23.098755%, 51.300049%, 78.399658%)" offset="1"/></linearGradient><clipPath id="7d1b2d9a12"><path d="M 174.019531 118 L 247.65625 118 L 247.65625 204.570312 L 174.019531 204.570312 Z M 174.019531 118 " clip-rule="nonzero"/></clipPath><clipPath id="462da1cccb"><path d="M 247.433594 186.511719 C 247.171875 188.5 246.65625 190.59375 245.753906 192.648438 C 244.839844 194.707031 243.515625 196.6875 241.898438 198.347656 C 240.289062 199.996094 238.425781 201.351562 236.550781 202.304688 C 236.074219 202.574219 235.605469 202.78125 235.128906 202.988281 L 234.414062 203.289062 L 234.0625 203.433594 C 234.011719 203.457031 233.992188 203.457031 233.992188 203.464844 C 233.949219 203.488281 233.835938 203.527344 233.503906 203.644531 L 233.367188 203.683594 L 232.308594 204.015625 C 232.257812 204.039062 232.0625 204.089844 231.894531 204.121094 L 231.378906 204.242188 L 230.339844 204.453125 C 226.972656 205.011719 223.863281 204.660156 221.105469 203.882812 C 234.46875 201.375 234.363281 185.339844 233.90625 179.785156 L 233.90625 179.742188 C 233.886719 179.484375 233.855469 179.246094 233.835938 179.039062 C 233.824219 178.933594 233.8125 178.832031 233.804688 178.75 C 233.792969 178.5625 233.773438 178.40625 233.75 178.28125 C 233.71875 178.023438 233.699219 177.886719 233.699219 177.886719 C 233.347656 175.453125 232.777344 172.890625 232.042969 170.324219 C 231.316406 167.742188 230.402344 165.160156 229.480469 162.507812 C 228.527344 159.792969 227.625 157.292969 226.589844 154.777344 C 225.585938 152.277344 224.515625 149.84375 223.347656 147.5 C 222.164062 145.15625 220.921875 142.886719 219.550781 140.742188 C 218.175781 138.566406 216.753906 136.609375 215.117188 134.628906 C 211.925781 130.8125 208.308594 127.488281 204.347656 125.433594 C 204.097656 125.3125 203.921875 125.195312 203.621094 125.0625 L 202.753906 124.679688 L 201.332031 124.160156 C 200.335938 123.878906 199.320312 123.652344 198.296875 123.589844 C 196.253906 123.445312 194.171875 123.808594 192.179688 124.574219 C 188.210938 126.160156 184.707031 129.09375 181.878906 132.328125 C 179.535156 134.96875 177.503906 137.863281 175.734375 140.722656 C 175.214844 140.222656 174.6875 139.726562 174.148438 139.25 C 175.671875 136.328125 177.421875 133.351562 179.503906 130.410156 C 182.210938 126.730469 185.539062 123 190.273438 120.460938 C 192.617188 119.195312 195.363281 118.316406 198.273438 118.160156 C 199.734375 118.054688 201.207031 118.179688 202.660156 118.417969 L 203.738281 118.65625 L 204.277344 118.78125 L 204.554688 118.84375 L 204.691406 118.875 C 204.761719 118.894531 204.710938 118.863281 204.886719 118.925781 L 205.800781 119.207031 C 206.097656 119.289062 206.492188 119.445312 206.835938 119.570312 C 212.265625 121.578125 216.941406 125.011719 221.128906 128.898438 C 223.179688 130.804688 225.234375 133 227.078125 135.25 C 228.933594 137.507812 230.664062 139.894531 232.257812 142.371094 C 233.867188 144.847656 235.359375 147.40625 236.746094 150.019531 C 238.113281 152.621094 239.421875 155.375 240.621094 157.957031 C 241.867188 160.609375 243.046875 163.398438 244.136719 166.3125 C 245.226562 169.222656 246.207031 172.292969 246.863281 175.609375 C 247.503906 178.925781 247.941406 182.511719 247.433594 186.511719 Z M 247.433594 186.511719 " clip-rule="nonzero"/></clipPath><clipPath id="de361fc9fe"><path d="M 247.433594 186.511719 C 247.171875 188.5 246.65625 190.59375 245.753906 192.648438 C 244.839844 194.707031 243.515625 196.6875 241.898438 198.347656 C 240.289062 199.996094 238.425781 201.351562 236.550781 202.304688 C 236.074219 202.574219 235.605469 202.78125 235.128906 202.988281 L 234.414062 203.289062 L 234.0625 203.433594 C 234.011719 203.457031 233.992188 203.457031 233.992188 203.464844 C 233.949219 203.488281 233.835938 203.527344 233.503906 203.644531 L 233.367188 203.683594 L 232.308594 204.015625 C 232.257812 204.039062 232.0625 204.089844 231.894531 204.121094 L 231.378906 204.242188 L 230.339844 204.453125 C 226.972656 205.011719 223.863281 204.660156 221.105469 203.882812 C 234.46875 201.375 234.363281 185.339844 233.90625 179.785156 L 233.90625 179.742188 C 233.886719 179.484375 233.855469 179.246094 233.835938 179.039062 C 233.824219 178.933594 233.8125 178.832031 233.804688 178.75 C 233.792969 178.5625 233.773438 178.40625 233.75 178.28125 C 233.71875 178.023438 233.699219 177.886719 233.699219 177.886719 C 233.347656 175.453125 232.777344 172.890625 232.042969 170.324219 C 231.316406 167.742188 230.402344 165.160156 229.480469 162.507812 C 228.527344 159.792969 227.625 157.292969 226.589844 154.777344 C 225.585938 152.277344 224.515625 149.84375 223.347656 147.5 C 222.164062 145.15625 220.921875 142.886719 219.550781 140.742188 C 218.175781 138.566406 216.753906 136.609375 215.117188 134.628906 C 211.925781 130.8125 208.308594 127.488281 204.347656 125.433594 C 204.097656 125.3125 203.921875 125.195312 203.621094 125.0625 L 202.753906 124.679688 L 201.332031 124.160156 C 200.335938 123.878906 199.320312 123.652344 198.296875 123.589844 C 196.253906 123.445312 194.171875 123.808594 192.179688 124.574219 C 188.210938 126.160156 184.707031 129.09375 181.878906 132.328125 C 179.535156 134.96875 177.503906 137.863281 175.734375 140.722656 C 175.214844 140.222656 174.6875 139.726562 174.148438 139.25 C 175.671875 136.328125 177.421875 133.351562 179.503906 130.410156 C 182.210938 126.730469 185.539062 123 190.273438 120.460938 C 192.617188 119.195312 195.363281 118.316406 198.273438 118.160156 C 199.734375 118.054688 201.207031 118.179688 202.660156 118.417969 L 203.738281 118.65625 L 204.277344 118.78125 L 204.554688 118.84375 L 204.691406 118.875 C 204.761719 118.894531 204.710938 118.863281 204.886719 118.925781 L 205.800781 119.207031 C 206.097656 119.289062 206.492188 119.445312 206.835938 119.570312 C 212.265625 121.578125 216.941406 125.011719 221.128906 128.898438 C 223.179688 130.804688 225.234375 133 227.078125 135.25 C 228.933594 137.507812 230.664062 139.894531 232.257812 142.371094 C 233.867188 144.847656 235.359375 147.40625 236.746094 150.019531 C 238.113281 152.621094 239.421875 155.375 240.621094 157.957031 C 241.867188 160.609375 243.046875 163.398438 244.136719 166.3125 C 245.226562 169.222656 246.207031 172.292969 246.863281 175.609375 C 247.503906 178.925781 247.941406 182.511719 247.433594 186.511719 " clip-rule="nonzero"/></clipPath><clipPath id="265ac186f0"><path d="M 214.488281 81.320312 L 130.859375 157.476562 L 207.601562 241.746094 L 291.226562 165.589844 Z M 214.488281 81.320312 " clip-rule="nonzero"/></clipPath><linearGradient x1="0.0390595" gradientTransform="matrix(110.896375, 121.779561, -121.779561, 110.896375, 171.50934, 111.756287)" y1="0" x2="0.727919" gradientUnits="userSpaceOnUse" y2="0" id="2340d3293e"><stop stop-opacity="1" stop-color="rgb(19.207764%, 36.898804%, 70.599365%)" offset="0"/><stop stop-opacity="1" stop-color="rgb(19.403076%, 37.091064%, 70.599365%)" offset="0.00390625"/><stop stop-opacity="1" stop-color="rgb(19.599915%, 37.284851%, 70.599365%)" offset="0.0078125"/><stop stop-opacity="1" stop-color="rgb(19.599915%, 37.290955%, 70.599365%)" offset="0.015625"/><stop stop-opacity="1" stop-color="rgb(19.599915%, 37.313843%, 70.799255%)" offset="0.0195312"/><stop stop-opacity="1" stop-color="rgb(19.599915%, 37.330627%, 70.999146%)" offset="0.0234375"/><stop stop-opacity="1" stop-color="rgb(19.599915%, 37.47406%, 70.999146%)" offset="0.03125"/><stop stop-opacity="1" stop-color="rgb(19.599915%, 37.808228%, 71.19751%)" offset="0.0351562"/><stop stop-opacity="1" stop-color="rgb(19.599915%, 37.998962%, 71.395874%)" offset="0.0390625"/><stop stop-opacity="1" stop-color="rgb(19.599915%, 38.186646%, 71.3974%)" offset="0.046875"/><stop stop-opacity="1" stop-color="rgb(19.599915%, 38.562012%, 71.574402%)" offset="0.0546875"/><stop stop-opacity="1" stop-color="rgb(19.599915%, 38.774109%, 71.774292%)" offset="0.0625"/><stop stop-opacity="1" stop-color="rgb(19.599915%, 38.998413%, 71.998596%)" offset="0.0664063"/><stop stop-opacity="1" stop-color="rgb(19.599915%, 39.199829%, 72.198486%)" offset="0.0703125"/><stop stop-opacity="1" stop-color="rgb(19.792175%, 39.39209%, 72.198486%)" offset="0.078125"/><stop stop-opacity="1" stop-color="rgb(19.992065%, 39.59198%, 72.198486%)" offset="0.0859375"/><stop stop-opacity="1" stop-color="rgb(19.999695%, 39.7995%, 72.32666%)" offset="0.0898438"/><stop stop-opacity="1" stop-color="rgb(19.999695%, 39.99939%, 72.454834%)" offset="0.09375"/><stop stop-opacity="1" stop-color="rgb(19.999695%, 40.19928%, 72.476196%)" offset="0.0976562"/><stop stop-opacity="1" stop-color="rgb(19.999695%, 40.39917%, 72.499084%)" offset="0.101562"/><stop stop-opacity="1" stop-color="rgb(19.999695%, 40.597534%, 72.698975%)" offset="0.105469"/><stop stop-opacity="1" stop-color="rgb(19.999695%, 40.795898%, 72.898865%)" offset="0.109375"/><stop stop-opacity="1" stop-color="rgb(20.185852%, 40.797424%, 72.898865%)" offset="0.117188"/><stop stop-opacity="1" stop-color="rgb(20.385742%, 40.99884%, 73.098755%)" offset="0.121094"/><stop stop-opacity="1" stop-color="rgb(20.399475%, 41.19873%, 73.298645%)" offset="0.125"/><stop stop-opacity="1" stop-color="rgb(20.399475%, 41.398621%, 73.298645%)" offset="0.128906"/><stop stop-opacity="1" stop-color="rgb(20.399475%, 41.598511%, 73.298645%)" offset="0.132813"/><stop stop-opacity="1" stop-color="rgb(20.399475%, 41.752625%, 73.498535%)" offset="0.136719"/><stop stop-opacity="1" stop-color="rgb(20.399475%, 41.906738%, 73.699951%)" offset="0.140625"/><stop stop-opacity="1" stop-color="rgb(20.399475%, 41.952515%, 73.699951%)" offset="0.148438"/><stop stop-opacity="1" stop-color="rgb(20.399475%, 42.199707%, 73.699951%)" offset="0.152344"/><stop stop-opacity="1" stop-color="rgb(20.399475%, 42.399597%, 73.699951%)" offset="0.15625"/><stop stop-opacity="1" stop-color="rgb(20.399475%, 42.549133%, 73.899841%)" offset="0.160156"/><stop stop-opacity="1" stop-color="rgb(20.399475%, 42.698669%, 74.099731%)" offset="0.164062"/><stop stop-opacity="1" stop-color="rgb(20.399475%, 42.857361%, 74.099731%)" offset="0.171875"/><stop stop-opacity="1" stop-color="rgb(20.573425%, 43.058777%, 74.273682%)" offset="0.179688"/><stop stop-opacity="1" stop-color="rgb(20.773315%, 43.267822%, 74.473572%)" offset="0.1875"/><stop stop-opacity="1" stop-color="rgb(20.799255%, 43.467712%, 74.499512%)" offset="0.195312"/><stop stop-opacity="1" stop-color="rgb(20.799255%, 43.699646%, 74.499512%)" offset="0.199219"/><stop stop-opacity="1" stop-color="rgb(20.799255%, 43.899536%, 74.499512%)" offset="0.203125"/><stop stop-opacity="1" stop-color="rgb(20.951843%, 44.099426%, 74.699402%)" offset="0.207031"/><stop stop-opacity="1" stop-color="rgb(21.105957%, 44.299316%, 74.899292%)" offset="0.210938"/><stop stop-opacity="1" stop-color="rgb(21.009827%, 44.441223%, 74.899292%)" offset="0.21875"/><stop stop-opacity="1" stop-color="rgb(21.057129%, 44.772339%, 75.099182%)" offset="0.222656"/><stop stop-opacity="1" stop-color="rgb(21.199036%, 44.961548%, 75.299072%)" offset="0.226562"/><stop stop-opacity="1" stop-color="rgb(21.199036%, 45.030212%, 75.299072%)" offset="0.234375"/><stop stop-opacity="1" stop-color="rgb(21.199036%, 45.298767%, 75.299072%)" offset="0.238281"/><stop stop-opacity="1" stop-color="rgb(21.199036%, 45.498657%, 75.299072%)" offset="0.242188"/><stop stop-opacity="1" stop-color="rgb(21.199036%, 45.498657%, 75.473022%)" offset="0.25"/><stop stop-opacity="1" stop-color="rgb(21.199036%, 45.666504%, 75.672913%)" offset="0.257812"/><stop stop-opacity="1" stop-color="rgb(21.398926%, 46.06781%, 75.823975%)" offset="0.261719"/><stop stop-opacity="1" stop-color="rgb(21.598816%, 46.299744%, 75.949097%)" offset="0.265625"/><stop stop-opacity="1" stop-color="rgb(21.598816%, 46.450806%, 76.023865%)" offset="0.273438"/><stop stop-opacity="1" stop-color="rgb(21.751404%, 46.803284%, 76.251221%)" offset="0.277344"/><stop stop-opacity="1" stop-color="rgb(21.905518%, 47.0047%, 76.405334%)" offset="0.28125"/><stop stop-opacity="1" stop-color="rgb(21.951294%, 47.052002%, 76.452637%)" offset="0.289062"/><stop stop-opacity="1" stop-color="rgb(21.998596%, 47.299194%, 76.629639%)" offset="0.292969"/><stop stop-opacity="1" stop-color="rgb(21.998596%, 47.499084%, 76.760864%)" offset="0.296875"/><stop stop-opacity="1" stop-color="rgb(21.998596%, 47.648621%, 76.829529%)" offset="0.304687"/><stop stop-opacity="1" stop-color="rgb(21.998596%, 47.90802%, 76.899719%)" offset="0.3125"/><stop stop-opacity="1" stop-color="rgb(22.167969%, 48.10791%, 76.899719%)" offset="0.320312"/><stop stop-opacity="1" stop-color="rgb(22.369385%, 48.36731%, 77.067566%)" offset="0.328125"/><stop stop-opacity="1" stop-color="rgb(22.399902%, 48.692322%, 77.267456%)" offset="0.335938"/><stop stop-opacity="1" stop-color="rgb(22.399902%, 48.924255%, 77.449036%)" offset="0.34375"/><stop stop-opacity="1" stop-color="rgb(22.476196%, 49.198914%, 77.598572%)" offset="0.347656"/><stop stop-opacity="1" stop-color="rgb(22.55249%, 49.398804%, 77.598572%)" offset="0.351562"/><stop stop-opacity="1" stop-color="rgb(22.625732%, 49.398804%, 77.598572%)" offset="0.359375"/><stop stop-opacity="1" stop-color="rgb(22.698975%, 49.598694%, 77.598572%)" offset="0.363281"/><stop stop-opacity="1" stop-color="rgb(22.698975%, 49.798584%, 77.598572%)" offset="0.367188"/><stop stop-opacity="1" stop-color="rgb(22.698975%, 49.998474%, 77.798462%)" offset="0.371094"/><stop stop-opacity="1" stop-color="rgb(22.698975%, 50.19989%, 77.999878%)" offset="0.375"/><stop stop-opacity="1" stop-color="rgb(22.698975%, 50.39978%, 77.999878%)" offset="0.378906"/><stop stop-opacity="1" stop-color="rgb(22.698975%, 50.59967%, 77.999878%)" offset="0.382812"/><stop stop-opacity="1" stop-color="rgb(22.698975%, 50.695801%, 78.199768%)" offset="0.386719"/><stop stop-opacity="1" stop-color="rgb(22.698975%, 50.793457%, 78.399658%)" offset="0.390625"/><stop stop-opacity="1" stop-color="rgb(22.813416%, 50.895691%, 78.399658%)" offset="0.398438"/><stop stop-opacity="1" stop-color="rgb(23.013306%, 51.161194%, 78.399658%)" offset="0.40625"/><stop stop-opacity="1" stop-color="rgb(23.098755%, 51.475525%, 78.512573%)" offset="0.414062"/><stop stop-opacity="1" stop-color="rgb(23.098755%, 51.712036%, 78.712463%)" offset="0.421875"/><stop stop-opacity="1" stop-color="rgb(23.190308%, 51.998901%, 78.889465%)" offset="0.425781"/><stop stop-opacity="1" stop-color="rgb(23.28186%, 52.198792%, 78.981018%)" offset="0.429688"/><stop stop-opacity="1" stop-color="rgb(23.390198%, 52.304077%, 79.089355%)" offset="0.4375"/><stop stop-opacity="1" stop-color="rgb(23.498535%, 52.453613%, 79.199219%)" offset="0.445312"/><stop stop-opacity="1" stop-color="rgb(23.498535%, 52.69928%, 79.199219%)" offset="0.449219"/><stop stop-opacity="1" stop-color="rgb(23.498535%, 52.89917%, 79.199219%)" offset="0.453125"/><stop stop-opacity="1" stop-color="rgb(23.594666%, 53.09906%, 79.295349%)" offset="0.457031"/><stop stop-opacity="1" stop-color="rgb(23.692322%, 53.29895%, 79.393005%)" offset="0.460938"/><stop stop-opacity="1" stop-color="rgb(23.796082%, 53.49884%, 79.495239%)" offset="0.464844"/><stop stop-opacity="1" stop-color="rgb(23.899841%, 53.69873%, 79.598999%)" offset="0.46875"/><stop stop-opacity="1" stop-color="rgb(23.899841%, 53.773499%, 79.673767%)" offset="0.476562"/><stop stop-opacity="1" stop-color="rgb(23.899841%, 53.973389%, 79.873657%)" offset="0.484375"/><stop stop-opacity="1" stop-color="rgb(23.899841%, 54.249573%, 79.998779%)" offset="0.492188"/><stop stop-opacity="1" stop-color="rgb(23.899841%, 54.541016%, 79.998779%)" offset="0.5"/><stop stop-opacity="1" stop-color="rgb(23.899841%, 54.86908%, 80.078125%)" offset="0.507812"/><stop stop-opacity="1" stop-color="rgb(24.099731%, 55.178833%, 80.278015%)" offset="0.511719"/><stop stop-opacity="1" stop-color="rgb(24.299622%, 55.299377%, 80.39856%)" offset="0.515625"/><stop stop-opacity="1" stop-color="rgb(24.221802%, 55.499268%, 80.474854%)" offset="0.519531"/><stop stop-opacity="1" stop-color="rgb(24.145508%, 55.699158%, 80.552673%)" offset="0.523438"/><stop stop-opacity="1" stop-color="rgb(24.169922%, 55.699158%, 80.67627%)" offset="0.53125"/><stop stop-opacity="1" stop-color="rgb(24.247742%, 55.899048%, 80.799866%)" offset="0.535156"/><stop stop-opacity="1" stop-color="rgb(24.299622%, 56.098938%, 80.799866%)" offset="0.539063"/><stop stop-opacity="1" stop-color="rgb(24.299622%, 56.298828%, 80.999756%)" offset="0.542969"/><stop stop-opacity="1" stop-color="rgb(24.299622%, 56.498718%, 81.199646%)" offset="0.546875"/><stop stop-opacity="1" stop-color="rgb(24.299622%, 56.698608%, 81.199646%)" offset="0.550781"/><stop stop-opacity="1" stop-color="rgb(24.299622%, 56.898499%, 81.199646%)" offset="0.554688"/><stop stop-opacity="1" stop-color="rgb(24.424744%, 56.898499%, 81.324768%)" offset="0.5625"/><stop stop-opacity="1" stop-color="rgb(24.624634%, 57.035828%, 81.524658%)" offset="0.570313"/><stop stop-opacity="1" stop-color="rgb(24.699402%, 57.38678%, 81.678772%)" offset="0.574219"/><stop stop-opacity="1" stop-color="rgb(24.699402%, 57.598877%, 81.758118%)" offset="0.578125"/><stop stop-opacity="1" stop-color="rgb(24.699402%, 57.798767%, 81.878662%)" offset="0.582031"/><stop stop-opacity="1" stop-color="rgb(24.699402%, 57.998657%, 81.999207%)" offset="0.585937"/><stop stop-opacity="1" stop-color="rgb(24.899292%, 58.055115%, 81.999207%)" offset="0.589844"/><stop stop-opacity="1" stop-color="rgb(25.099182%, 58.113098%, 81.999207%)" offset="0.59375"/><stop stop-opacity="1" stop-color="rgb(25.099182%, 58.256531%, 81.999207%)" offset="0.601562"/><stop stop-opacity="1" stop-color="rgb(25.099182%, 58.599854%, 82.08313%)" offset="0.605469"/><stop stop-opacity="1" stop-color="rgb(25.099182%, 58.799744%, 82.168579%)" offset="0.609375"/><stop stop-opacity="1" stop-color="rgb(25.099182%, 58.872986%, 82.28302%)" offset="0.617187"/><stop stop-opacity="1" stop-color="rgb(25.230408%, 59.072876%, 82.398987%)" offset="0.625"/><stop stop-opacity="1" stop-color="rgb(25.430298%, 59.399414%, 82.548523%)" offset="0.628906"/><stop stop-opacity="1" stop-color="rgb(25.498962%, 59.599304%, 82.699585%)" offset="0.632812"/><stop stop-opacity="1" stop-color="rgb(25.498962%, 59.638977%, 82.699585%)" offset="0.640625"/><stop stop-opacity="1" stop-color="rgb(25.537109%, 59.87854%, 82.899475%)" offset="0.644531"/><stop stop-opacity="1" stop-color="rgb(25.576782%, 60.076904%, 83.099365%)" offset="0.648437"/><stop stop-opacity="1" stop-color="rgb(25.737%, 60.237122%, 83.099365%)" offset="0.65625"/><stop stop-opacity="1" stop-color="rgb(25.898743%, 60.527039%, 83.099365%)" offset="0.664062"/><stop stop-opacity="1" stop-color="rgb(25.898743%, 60.772705%, 83.299255%)" offset="0.667969"/><stop stop-opacity="1" stop-color="rgb(25.898743%, 60.890198%, 83.499146%)" offset="0.671875"/><stop stop-opacity="1" stop-color="rgb(25.898743%, 61.044312%, 83.499146%)" offset="0.679688"/><stop stop-opacity="1" stop-color="rgb(25.898743%, 61.31134%, 83.499146%)" offset="0.6875"/><stop stop-opacity="1" stop-color="rgb(26.098633%, 61.51123%, 83.299255%)" offset="0.691406"/><stop stop-opacity="1" stop-color="rgb(26.298523%, 61.599731%, 83.099365%)" offset="0.695312"/><stop stop-opacity="1" stop-color="rgb(26.298523%, 61.799622%, 83.047485%)" offset="0.699219"/><stop stop-opacity="1" stop-color="rgb(26.298523%, 61.999512%, 82.997131%)" offset="0.703125"/><stop stop-opacity="1" stop-color="rgb(26.298523%, 61.999512%, 82.847595%)" offset="0.71875"/><stop stop-opacity="1" stop-color="rgb(26.298523%, 62.199402%, 82.548523%)" offset="0.722656"/><stop stop-opacity="1" stop-color="rgb(26.298523%, 62.399292%, 82.398987%)" offset="0.726562"/><stop stop-opacity="1" stop-color="rgb(26.298523%, 62.440491%, 82.398987%)" offset="0.734375"/><stop stop-opacity="1" stop-color="rgb(26.298523%, 62.635803%, 82.398987%)" offset="0.742187"/><stop stop-opacity="1" stop-color="rgb(26.298523%, 62.944031%, 82.398987%)" offset="0.75"/><stop stop-opacity="1" stop-color="rgb(26.298523%, 63.204956%, 82.292175%)" offset="0.765625"/><stop stop-opacity="1" stop-color="rgb(26.298523%, 63.404846%, 82.092285%)" offset="0.773437"/><stop stop-opacity="1" stop-color="rgb(26.417542%, 63.618469%, 81.999207%)" offset="0.78125"/><stop stop-opacity="1" stop-color="rgb(26.618958%, 63.818359%, 81.999207%)" offset="0.789062"/><stop stop-opacity="1" stop-color="rgb(26.699829%, 64.099121%, 81.999207%)" offset="0.792969"/><stop stop-opacity="1" stop-color="rgb(26.699829%, 64.299011%, 81.999207%)" offset="0.796875"/><stop stop-opacity="1" stop-color="rgb(26.699829%, 64.498901%, 81.993103%)" offset="0.800781"/><stop stop-opacity="1" stop-color="rgb(26.699829%, 64.698792%, 81.987%)" offset="0.804688"/><stop stop-opacity="1" stop-color="rgb(26.893616%, 64.698792%, 81.793213%)" offset="0.8125"/><stop stop-opacity="1" stop-color="rgb(27.093506%, 64.804077%, 81.599426%)" offset="0.820312"/><stop stop-opacity="1" stop-color="rgb(27.099609%, 65.003967%, 81.599426%)" offset="0.828125"/><stop stop-opacity="1" stop-color="rgb(27.099609%, 65.203857%, 81.492615%)" offset="0.835938"/><stop stop-opacity="1" stop-color="rgb(27.198792%, 65.405273%, 81.292725%)" offset="0.84375"/><stop stop-opacity="1" stop-color="rgb(27.398682%, 65.689087%, 81.199646%)" offset="0.851563"/><stop stop-opacity="1" stop-color="rgb(27.49939%, 65.888977%, 80.999756%)" offset="0.855469"/><stop stop-opacity="1" stop-color="rgb(27.49939%, 65.899658%, 80.799866%)" offset="0.859375"/><stop stop-opacity="1" stop-color="rgb(27.49939%, 65.899658%, 80.799866%)" offset="0.867187"/><stop stop-opacity="1" stop-color="rgb(27.49939%, 66.104126%, 80.799866%)" offset="0.871094"/><stop stop-opacity="1" stop-color="rgb(27.49939%, 66.31012%, 80.799866%)" offset="0.875"/><stop stop-opacity="1" stop-color="rgb(27.49939%, 66.503906%, 80.706787%)" offset="0.890625"/><stop stop-opacity="1" stop-color="rgb(27.572632%, 66.796875%, 80.506897%)" offset="0.898437"/><stop stop-opacity="1" stop-color="rgb(27.734375%, 67.008972%, 80.39856%)" offset="0.90625"/><stop stop-opacity="1" stop-color="rgb(28.010559%, 67.30957%, 80.198669%)" offset="0.910156"/><stop stop-opacity="1" stop-color="rgb(28.199768%, 67.498779%, 79.998779%)" offset="0.914062"/><stop stop-opacity="1" stop-color="rgb(28.199768%, 67.498779%, 79.998779%)" offset="0.921875"/><stop stop-opacity="1" stop-color="rgb(28.282166%, 67.648315%, 79.914856%)" offset="0.9375"/><stop stop-opacity="1" stop-color="rgb(28.482056%, 67.887878%, 79.714966%)" offset="0.945312"/><stop stop-opacity="1" stop-color="rgb(28.599548%, 68.087769%, 79.598999%)" offset="0.953125"/><stop stop-opacity="1" stop-color="rgb(28.599548%, 68.29071%, 79.598999%)" offset="0.960938"/><stop stop-opacity="1" stop-color="rgb(28.599548%, 68.490601%, 79.426575%)" offset="0.96875"/><stop stop-opacity="1" stop-color="rgb(28.678894%, 68.798828%, 79.226685%)" offset="0.972656"/><stop stop-opacity="1" stop-color="rgb(28.759766%, 68.998718%, 79.199219%)" offset="0.976563"/><stop stop-opacity="1" stop-color="rgb(28.878784%, 68.998718%, 79.11377%)" offset="0.984375"/><stop stop-opacity="1" stop-color="rgb(29.092407%, 69.093323%, 78.913879%)" offset="0.992188"/><stop stop-opacity="1" stop-color="rgb(29.292297%, 69.381714%, 78.799438%)" offset="1"/></linearGradient><clipPath id="499002324b"><path d="M 220 203 L 222 203 L 222 204.570312 L 220 204.570312 Z M 220 203 " clip-rule="nonzero"/></clipPath><clipPath id="8a88b6ad4b"><path d="M 156 103.320312 L 175 103.320312 L 175 121 L 156 121 Z M 156 103.320312 " clip-rule="nonzero"/></clipPath></defs><g clip-path="url(#ba2e4c8e71)"><g clip-path="url(#f4d5e5c842)"><g clip-path="url(#a6517d88ab)"><g clip-path="url(#6ebcf1b7b8)"><path fill="url(#dd1ddb1e4d)" d="M 158.710938 77.90625 L 92.128906 181.179688 L 202.808594 252.539062 L 269.390625 149.265625 Z M 158.710938 77.90625 " fill-rule="nonzero"/></g></g></g></g><g clip-path="url(#df00e81fd9)"><g clip-path="url(#4d75dc3836)"><g clip-path="url(#a27fb7b81e)"><g clip-path="url(#f0247ff9c0)"><path fill="url(#32d4bddcef)" d="M 163.804688 142.023438 L 138.300781 165.25 L 162.445312 191.757812 L 187.949219 168.535156 Z M 163.804688 142.023438 " fill-rule="nonzero"/></g></g></g></g><g clip-path="url(#7d1b2d9a12)"><g clip-path="url(#462da1cccb)"><g clip-path="url(#de361fc9fe)"><g clip-path="url(#265ac186f0)"><path fill="url(#2340d3293e)" d="M 214.332031 81.460938 L 131.078125 157.273438 L 207.46875 241.164062 L 290.722656 165.351562 Z M 214.332031 81.460938 " fill-rule="nonzero"/></g></g></g></g><g clip-path="url(#499002324b)"><path stroke-linecap="butt" transform="matrix(0.0240632, 0, 0, -0.0240632, 67.180548, 274.338323)" fill="none" stroke-linejoin="miter" d="M 6396.692644 2927.935531 L 6396.367978 2927.935531 " stroke="#ef3021" stroke-width="30.101999" stroke-opacity="1" stroke-miterlimit="10"/></g><g clip-path="url(#8a88b6ad4b)"><path fill="#233dff" d="M 174.148438 112.101562 C 174.148438 116.953125 170.214844 120.886719 165.363281 120.886719 C 160.511719 120.886719 156.578125 116.953125 156.578125 112.101562 C 156.578125 107.253906 160.511719 103.320312 165.363281 103.320312 C 170.214844 103.320312 174.148438 107.253906 174.148438 112.101562 " fill-opacity="1" fill-rule="nonzero"/></g><g fill="#011c43" fill-opacity="1"><g transform="translate(146.57812, 244.178833)"><g><path d="M 2.3125 0 L 6.703125 0 L 6.703125 -20.296875 L 2.3125 -20.296875 Z M 2.3125 0 "/></g></g></g><g fill="#ff914d" fill-opacity="1"><g transform="translate(155.624994, 244.178833)"><g><path d="M 10.9375 -16.015625 C 8.8125 -16.015625 6.9375 -15.109375 5.734375 -13.71875 L 4.9375 -15.65625 L 2.03125 -15.65625 L 2.03125 0 L 6.265625 0 L 6.265625 -8.203125 C 6.265625 -10.734375 7.59375 -12.296875 9.765625 -12.296875 C 11.59375 -12.296875 12.5 -11.171875 12.5 -8.78125 L 12.5 0 L 16.734375 0 L 16.734375 -9.484375 C 16.734375 -13.453125 14.5 -16.015625 10.9375 -16.015625 Z M 10.9375 -16.015625 "/></g></g></g><g fill="#011c43" fill-opacity="1"><g transform="translate(174.210931, 244.178833)"><g><path d="M 7.5625 0.46875 C 11.546875 0.46875 14.15625 -1.625 14.15625 -4.8125 C 14.15625 -8.640625 10.875 -9.15625 8.328125 -9.625 C 6.703125 -9.921875 5.359375 -10.171875 5.359375 -11.21875 C 5.359375 -12.125 6.140625 -12.703125 7.453125 -12.703125 C 8.9375 -12.703125 9.796875 -12.09375 9.828125 -10.84375 L 13.859375 -10.84375 C 13.828125 -13.984375 11.34375 -16.09375 7.5625 -16.09375 C 3.796875 -16.09375 1.28125 -14.03125 1.28125 -11.078125 C 1.28125 -7.390625 4.46875 -6.734375 6.953125 -6.296875 C 8.609375 -6.03125 9.96875 -5.71875 9.96875 -4.640625 C 9.96875 -3.59375 8.90625 -3.046875 7.75 -3.046875 C 6.234375 -3.046875 5.15625 -3.734375 5.140625 -5.140625 L 1.015625 -5.140625 C 1.015625 -1.796875 3.65625 0.46875 7.5625 0.46875 Z M 7.5625 0.46875 "/></g></g></g><g fill="#011c43" fill-opacity="1"><g transform="translate(189.431823, 244.178833)"><g><path d="M 9.6875 -3.765625 C 8.125 -3.765625 7.25 -4.640625 7.25 -6.140625 L 7.25 -12.234375 L 11.515625 -12.234375 L 11.515625 -15.65625 L 7.1875 -15.65625 L 7.1875 -19.71875 L 6.375 -19.71875 L 0.203125 -13.171875 L 0.203125 -12.234375 L 3.015625 -12.234375 L 3.015625 -5.5625 C 3.015625 -2.109375 5.140625 0 8.578125 0 L 11.59375 0 L 11.59375 -3.765625 Z M 9.6875 -3.765625 "/></g></g></g><g fill="#004aad" fill-opacity="1"><g transform="translate(201.902339, 244.178833)"><g><path d="M 17.21875 -7.859375 C 17.21875 -12.390625 13.921875 -16.09375 9.109375 -16.09375 C 4.46875 -16.09375 0.984375 -12.53125 0.984375 -7.828125 C 0.984375 -3.125 4.5 0.46875 9.109375 0.46875 C 12.765625 0.46875 15.75 -1.71875 16.875 -5.140625 L 12.4375 -5.140625 C 11.796875 -4 10.578125 -3.3125 9.109375 -3.3125 C 7.046875 -3.3125 5.65625 -4.5 5.28125 -6.640625 L 17.140625 -6.640625 C 17.203125 -7.046875 17.21875 -7.453125 17.21875 -7.859375 Z M 9.109375 -12.46875 C 11.015625 -12.46875 12.390625 -11.421875 12.984375 -9.515625 L 5.390625 -9.515625 C 5.890625 -11.375 7.21875 -12.46875 9.109375 -12.46875 Z M 9.109375 -12.46875 "/></g></g></g><g fill="#011c43" fill-opacity="1"><g transform="translate(220.113275, 244.178833)"><g><path d="M 2.03125 0 L 6.265625 0 L 6.265625 -21.28125 L 2.03125 -21.28125 Z M 2.03125 0 "/></g></g></g><g fill="#ff914d" fill-opacity="1"><g transform="translate(93.945489, 264.181154)"><g><path d="M 2.671875 -6.71875 L 0.046875 -6.71875 L 0.046875 -7.671875 L 6.390625 -7.671875 L 6.390625 -6.71875 L 3.765625 -6.71875 L 3.765625 0 L 2.671875 0 Z M 2.671875 -6.71875 "/></g></g></g><g fill="#ff914d" fill-opacity="1"><g transform="translate(109.165774, 264.181154)"><g><path d="M 6.71875 -0.953125 L 6.71875 0 L 1.15625 0 L 1.15625 -7.671875 L 6.5625 -7.671875 L 6.5625 -6.71875 L 2.25 -6.71875 L 2.25 -4.359375 L 6.09375 -4.359375 L 6.09375 -3.4375 L 2.25 -3.4375 L 2.25 -0.953125 Z M 6.71875 -0.953125 "/></g></g></g><g fill="#ff914d" fill-opacity="1"><g transform="translate(125.296471, 264.181154)"><g><path d="M 4.578125 0.09375 C 3.816406 0.09375 3.125 -0.078125 2.5 -0.421875 C 1.882812 -0.765625 1.398438 -1.234375 1.046875 -1.828125 C 0.703125 -2.421875 0.53125 -3.09375 0.53125 -3.84375 C 0.53125 -4.582031 0.703125 -5.25 1.046875 -5.84375 C 1.398438 -6.445312 1.882812 -6.914062 2.5 -7.25 C 3.125 -7.59375 3.820312 -7.765625 4.59375 -7.765625 C 5.195312 -7.765625 5.742188 -7.660156 6.234375 -7.453125 C 6.734375 -7.253906 7.160156 -6.957031 7.515625 -6.5625 L 6.796875 -5.875 C 6.222656 -6.488281 5.503906 -6.796875 4.640625 -6.796875 C 4.066406 -6.796875 3.550781 -6.664062 3.09375 -6.40625 C 2.632812 -6.144531 2.273438 -5.789062 2.015625 -5.34375 C 1.753906 -4.894531 1.625 -4.394531 1.625 -3.84375 C 1.625 -3.28125 1.753906 -2.773438 2.015625 -2.328125 C 2.273438 -1.878906 2.632812 -1.523438 3.09375 -1.265625 C 3.550781 -1.015625 4.066406 -0.890625 4.640625 -0.890625 C 5.492188 -0.890625 6.210938 -1.195312 6.796875 -1.8125 L 7.515625 -1.125 C 7.160156 -0.726562 6.734375 -0.425781 6.234375 -0.21875 C 5.734375 -0.0078125 5.179688 0.09375 4.578125 0.09375 Z M 4.578125 0.09375 "/></g></g></g><g fill="#ff914d" fill-opacity="1"><g transform="translate(142.008514, 264.181154)"><g><path d="M 7.75 -7.671875 L 7.75 0 L 6.65625 0 L 6.65625 -3.421875 L 2.25 -3.421875 L 2.25 0 L 1.15625 0 L 1.15625 -7.671875 L 2.25 -7.671875 L 2.25 -4.375 L 6.65625 -4.375 L 6.65625 -7.671875 Z M 7.75 -7.671875 "/></g></g></g><g fill="#ff914d" fill-opacity="1"><g transform="translate(159.696788, 264.181154)"><g><path d="M 7.75 -7.671875 L 7.75 0 L 6.859375 0 L 2.25 -5.71875 L 2.25 0 L 1.15625 0 L 1.15625 -7.671875 L 2.046875 -7.671875 L 6.65625 -1.953125 L 6.65625 -7.671875 Z M 7.75 -7.671875 "/></g></g></g><g fill="#ff914d" fill-opacity="1"><g transform="translate(177.385061, 264.181154)"><g><path d="M 4.625 0.09375 C 3.84375 0.09375 3.140625 -0.078125 2.515625 -0.421875 C 1.898438 -0.765625 1.414062 -1.234375 1.0625 -1.828125 C 0.707031 -2.429688 0.53125 -3.101562 0.53125 -3.84375 C 0.53125 -4.582031 0.707031 -5.25 1.0625 -5.84375 C 1.414062 -6.445312 1.898438 -6.914062 2.515625 -7.25 C 3.140625 -7.59375 3.84375 -7.765625 4.625 -7.765625 C 5.382812 -7.765625 6.078125 -7.59375 6.703125 -7.25 C 7.328125 -6.914062 7.8125 -6.445312 8.15625 -5.84375 C 8.507812 -5.25 8.6875 -4.582031 8.6875 -3.84375 C 8.6875 -3.09375 8.507812 -2.421875 8.15625 -1.828125 C 7.8125 -1.234375 7.328125 -0.765625 6.703125 -0.421875 C 6.078125 -0.078125 5.382812 0.09375 4.625 0.09375 Z M 4.625 -0.890625 C 5.1875 -0.890625 5.691406 -1.015625 6.140625 -1.265625 C 6.585938 -1.523438 6.941406 -1.878906 7.203125 -2.328125 C 7.460938 -2.773438 7.59375 -3.28125 7.59375 -3.84375 C 7.59375 -4.394531 7.460938 -4.894531 7.203125 -5.34375 C 6.941406 -5.789062 6.585938 -6.144531 6.140625 -6.40625 C 5.691406 -6.664062 5.1875 -6.796875 4.625 -6.796875 C 4.050781 -6.796875 3.535156 -6.664062 3.078125 -6.40625 C 2.628906 -6.144531 2.273438 -5.789062 2.015625 -5.34375 C 1.753906 -4.894531 1.625 -4.394531 1.625 -3.84375 C 1.625 -3.28125 1.753906 -2.773438 2.015625 -2.328125 C 2.273438 -1.878906 2.628906 -1.523438 3.078125 -1.265625 C 3.535156 -1.015625 4.050781 -0.890625 4.625 -0.890625 Z M 4.625 -0.890625 "/></g></g></g><g fill="#ff914d" fill-opacity="1"><g transform="translate(195.380453, 264.181154)"><g><path d="M 1.15625 -7.671875 L 2.25 -7.671875 L 2.25 -0.953125 L 6.40625 -0.953125 L 6.40625 0 L 1.15625 0 Z M 1.15625 -7.671875 "/></g></g></g><g fill="#ff914d" fill-opacity="1"><g transform="translate(210.677518, 264.181154)"><g><path d="M 4.625 0.09375 C 3.84375 0.09375 3.140625 -0.078125 2.515625 -0.421875 C 1.898438 -0.765625 1.414062 -1.234375 1.0625 -1.828125 C 0.707031 -2.429688 0.53125 -3.101562 0.53125 -3.84375 C 0.53125 -4.582031 0.707031 -5.25 1.0625 -5.84375 C 1.414062 -6.445312 1.898438 -6.914062 2.515625 -7.25 C 3.140625 -7.59375 3.84375 -7.765625 4.625 -7.765625 C 5.382812 -7.765625 6.078125 -7.59375 6.703125 -7.25 C 7.328125 -6.914062 7.8125 -6.445312 8.15625 -5.84375 C 8.507812 -5.25 8.6875 -4.582031 8.6875 -3.84375 C 8.6875 -3.09375 8.507812 -2.421875 8.15625 -1.828125 C 7.8125 -1.234375 7.328125 -0.765625 6.703125 -0.421875 C 6.078125 -0.078125 5.382812 0.09375 4.625 0.09375 Z M 4.625 -0.890625 C 5.1875 -0.890625 5.691406 -1.015625 6.140625 -1.265625 C 6.585938 -1.523438 6.941406 -1.878906 7.203125 -2.328125 C 7.460938 -2.773438 7.59375 -3.28125 7.59375 -3.84375 C 7.59375 -4.394531 7.460938 -4.894531 7.203125 -5.34375 C 6.941406 -5.789062 6.585938 -6.144531 6.140625 -6.40625 C 5.691406 -6.664062 5.1875 -6.796875 4.625 -6.796875 C 4.050781 -6.796875 3.535156 -6.664062 3.078125 -6.40625 C 2.628906 -6.144531 2.273438 -5.789062 2.015625 -5.34375 C 1.753906 -4.894531 1.625 -4.394531 1.625 -3.84375 C 1.625 -3.28125 1.753906 -2.773438 2.015625 -2.328125 C 2.273438 -1.878906 2.628906 -1.523438 3.078125 -1.265625 C 3.535156 -1.015625 4.050781 -0.890625 4.625 -0.890625 Z M 4.625 -0.890625 "/></g></g></g><g fill="#ff914d" fill-opacity="1"><g transform="translate(228.672917, 264.181154)"><g><path d="M 6.46875 -3.890625 L 7.53125 -3.890625 L 7.53125 -0.890625 C 7.144531 -0.578125 6.695312 -0.332031 6.1875 -0.15625 C 5.6875 0.0078125 5.164062 0.09375 4.625 0.09375 C 3.84375 0.09375 3.140625 -0.078125 2.515625 -0.421875 C 1.898438 -0.765625 1.414062 -1.234375 1.0625 -1.828125 C 0.707031 -2.421875 0.53125 -3.09375 0.53125 -3.84375 C 0.53125 -4.582031 0.707031 -5.25 1.0625 -5.84375 C 1.414062 -6.445312 1.90625 -6.914062 2.53125 -7.25 C 3.15625 -7.59375 3.859375 -7.765625 4.640625 -7.765625 C 5.253906 -7.765625 5.8125 -7.660156 6.3125 -7.453125 C 6.8125 -7.253906 7.238281 -6.960938 7.59375 -6.578125 L 6.90625 -5.90625 C 6.289062 -6.5 5.550781 -6.796875 4.6875 -6.796875 C 4.101562 -6.796875 3.578125 -6.664062 3.109375 -6.40625 C 2.640625 -6.15625 2.273438 -5.804688 2.015625 -5.359375 C 1.753906 -4.910156 1.625 -4.40625 1.625 -3.84375 C 1.625 -3.28125 1.753906 -2.773438 2.015625 -2.328125 C 2.273438 -1.878906 2.640625 -1.523438 3.109375 -1.265625 C 3.578125 -1.015625 4.097656 -0.890625 4.671875 -0.890625 C 5.359375 -0.890625 5.957031 -1.050781 6.46875 -1.375 Z M 6.46875 -3.890625 "/></g></g></g><g fill="#ff914d" fill-opacity="1"><g transform="translate(245.922435, 264.181154)"><g><path d="M 1.15625 -7.671875 L 2.25 -7.671875 L 2.25 0 L 1.15625 0 Z M 1.15625 -7.671875 "/></g></g></g><g fill="#ff914d" fill-opacity="1"><g transform="translate(258.104361, 264.181154)"><g><path d="M 6.71875 -0.953125 L 6.71875 0 L 1.15625 0 L 1.15625 -7.671875 L 6.5625 -7.671875 L 6.5625 -6.71875 L 2.25 -6.71875 L 2.25 -4.359375 L 6.09375 -4.359375 L 6.09375 -3.4375 L 2.25 -3.4375 L 2.25 -0.953125 Z M 6.71875 -0.953125 "/></g></g></g><g fill="#ff914d" fill-opacity="1"><g transform="translate(274.235059, 264.181154)"><g><path d="M 3.390625 0.09375 C 2.804688 0.09375 2.242188 0.00390625 1.703125 -0.171875 C 1.171875 -0.359375 0.753906 -0.59375 0.453125 -0.875 L 0.859375 -1.734375 C 1.148438 -1.472656 1.523438 -1.257812 1.984375 -1.09375 C 2.441406 -0.925781 2.910156 -0.84375 3.390625 -0.84375 C 4.023438 -0.84375 4.5 -0.945312 4.8125 -1.15625 C 5.125 -1.375 5.28125 -1.664062 5.28125 -2.03125 C 5.28125 -2.289062 5.191406 -2.503906 5.015625 -2.671875 C 4.847656 -2.835938 4.640625 -2.960938 4.390625 -3.046875 C 4.140625 -3.140625 3.785156 -3.238281 3.328125 -3.34375 C 2.742188 -3.476562 2.273438 -3.613281 1.921875 -3.75 C 1.566406 -3.894531 1.265625 -4.113281 1.015625 -4.40625 C 0.765625 -4.695312 0.640625 -5.085938 0.640625 -5.578125 C 0.640625 -5.984375 0.742188 -6.347656 0.953125 -6.671875 C 1.171875 -7.003906 1.5 -7.269531 1.9375 -7.46875 C 2.375 -7.664062 2.921875 -7.765625 3.578125 -7.765625 C 4.023438 -7.765625 4.46875 -7.707031 4.90625 -7.59375 C 5.351562 -7.476562 5.734375 -7.304688 6.046875 -7.078125 L 5.6875 -6.203125 C 5.363281 -6.410156 5.019531 -6.566406 4.65625 -6.671875 C 4.289062 -6.773438 3.929688 -6.828125 3.578125 -6.828125 C 2.953125 -6.828125 2.484375 -6.710938 2.171875 -6.484375 C 1.867188 -6.265625 1.71875 -5.972656 1.71875 -5.609375 C 1.71875 -5.347656 1.800781 -5.132812 1.96875 -4.96875 C 2.144531 -4.8125 2.363281 -4.6875 2.625 -4.59375 C 2.882812 -4.5 3.238281 -4.398438 3.6875 -4.296875 C 4.257812 -4.160156 4.722656 -4.019531 5.078125 -3.875 C 5.429688 -3.738281 5.734375 -3.523438 5.984375 -3.234375 C 6.234375 -2.953125 6.359375 -2.570312 6.359375 -2.09375 C 6.359375 -1.6875 6.25 -1.316406 6.03125 -0.984375 C 5.8125 -0.660156 5.476562 -0.398438 5.03125 -0.203125 C 4.582031 -0.00390625 4.035156 0.09375 3.390625 0.09375 Z M 3.390625 0.09375 "/></g></g></g></svg>